<svg width="25" height="24" viewBox="0 0 25 24" fill="none" xmlns="http://www.w3.org/2000/svg">
    <path d="M2.75024 9.74917H5.00024V15.7492H3.50024C3.30133 15.7492 3.11057 15.8282 2.96991 15.9688C2.82926 16.1095 2.75024 16.3003 2.75024 16.4992C2.75024 16.6981 2.82926 16.8888 2.96991 17.0295C3.11057 17.1702 3.30133 17.2492 3.50024 17.2492H21.5002C21.6992 17.2492 21.8899 17.1702 22.0306 17.0295C22.1712 16.8888 22.2502 16.6981 22.2502 16.4992C22.2502 16.3003 22.1712 16.1095 22.0306 15.9688C21.8899 15.8282 21.6992 15.7492 21.5002 15.7492H20.0002V9.74917H22.2502C22.4134 9.749 22.5721 9.69562 22.7022 9.59712C22.8323 9.49861 22.9267 9.36036 22.9712 9.20334C23.0156 9.04632 23.0076 8.87909 22.9484 8.72703C22.8892 8.57497 22.782 8.44636 22.6431 8.36073L12.8931 2.36073C12.7749 2.28809 12.6389 2.24963 12.5002 2.24963C12.3616 2.24963 12.2256 2.28809 12.1074 2.36073L2.35743 8.36073C2.21852 8.44636 2.11133 8.57497 2.05212 8.72703C1.9929 8.87909 1.9849 9.04632 2.02933 9.20334C2.07375 9.36036 2.16818 9.49861 2.29828 9.59712C2.42838 9.69562 2.58706 9.749 2.75024 9.74917ZM6.50024 9.74917H9.50024V15.7492H6.50024V9.74917ZM14.0002 9.74917V15.7492H11.0002V9.74917H14.0002ZM18.5002 15.7492H15.5002V9.74917H18.5002V15.7492ZM12.5002 3.87948L19.6009 8.24917H5.39962L12.5002 3.87948ZM23.7502 19.4992C23.7502 19.6981 23.6712 19.8888 23.5306 20.0295C23.3899 20.1702 23.1992 20.2492 23.0002 20.2492H2.00024C1.80133 20.2492 1.61057 20.1702 1.46991 20.0295C1.32926 19.8888 1.25024 19.6981 1.25024 19.4992C1.25024 19.3003 1.32926 19.1095 1.46991 18.9688C1.61057 18.8282 1.80133 18.7492 2.00024 18.7492H23.0002C23.1992 18.7492 23.3899 18.8282 23.5306 18.9688C23.6712 19.1095 23.7502 19.3003 23.7502 19.4992Z" fill="#454C6A"/>
</svg>
